<?xml version="1.0" encoding="utf-8"?>
<!-- Generator: Adobe Illustrator 28.1.0, SVG Export Plug-In . SVG Version: 6.00 Build 0)  -->
<svg version="1.1" id="Ebene_1" xmlns="http://www.w3.org/2000/svg" xmlns:xlink="http://www.w3.org/1999/xlink" x="0px" y="0px"
	 viewBox="0 0 160 36" style="enable-background:new 0 0 160 36;" xml:space="preserve">
<style type="text/css">
	.st0{fill:#F3B251;}
</style>
<g id="Group_28" transform="translate(-554.903 -769)">
	<g id="Group_16" transform="translate(554.903 805.02)">
		<path id="Path_29" class="st0" d="M10.6-15.9l1.7-1v-1.9l-1.7-1l-1.7,1v1.9L10.6-15.9z"/>
		<rect id="Rectangle_1" x="15.1" y="-19.3" class="st0" width="5.1" height="3.1"/>
		<rect id="Rectangle_2" x="1" y="-19.3" class="st0" width="5.1" height="3.1"/>
		
			<rect id="Rectangle_3" x="11.6" y="-25.5" transform="matrix(0.5 -0.866 0.866 0.5 27.7904 0.3172)" class="st0" width="5.1" height="3.1"/>
		
			<rect id="Rectangle_4" x="4.5" y="-13.2" transform="matrix(0.5 -0.866 0.866 0.5 13.6519 0.2937)" class="st0" width="5.1" height="3.1"/>
		
			<rect id="Rectangle_5" x="5.5" y="-26.5" transform="matrix(0.866 -0.5 0.5 0.866 12.9066 0.3308)" class="st0" width="3.1" height="5.1"/>
		
			<rect id="Rectangle_6" x="12.6" y="-14.2" transform="matrix(0.866 -0.5 0.5 0.866 7.735 5.5272)" class="st0" width="3.1" height="5.1"/>
	</g>
	<g id="Group_18" transform="translate(680 769)">
		<g id="Group_19">
			<path id="Path_30" d="M-91.7,27c-1-0.4-1.9-1.2-2.6-2.1c-0.6-0.9-1-1.9-1-3h2.8c0.1,0.9,0.6,1.8,1.3,2.3c0.8,0.6,1.9,0.9,3.2,0.9
				c1.1,0,2.1-0.2,2.8-0.7c0.7-0.4,1.1-1.2,1.1-2c0-0.6-0.2-1.2-0.6-1.6c-0.4-0.4-0.9-0.7-1.5-0.9c-0.6-0.2-1.4-0.4-2.5-0.7
				c-1.1-0.2-2.2-0.5-3.2-0.9c-0.8-0.3-1.5-0.8-2.1-1.5c-0.6-0.7-0.9-1.6-0.9-2.9c0-1,0.3-1.9,0.9-2.7c0.6-0.8,1.5-1.5,2.4-1.9
				c1-0.5,2.2-0.7,3.3-0.7c1.1,0,2.2,0.2,3.2,0.8c1,0.5,1.7,1.2,2.4,2c0.6,0.8,0.9,1.8,1,2.9h-2.8c0-0.8-0.5-1.6-1.2-2.1
				c-0.8-0.6-1.7-0.9-2.7-0.9c-0.9,0-1.8,0.2-2.5,0.7c-0.6,0.4-1,1.2-1,1.9c0,0.6,0.2,1.1,0.6,1.5s0.9,0.7,1.4,0.9
				c0.6,0.2,1.3,0.4,2.4,0.7c1.1,0.2,2.2,0.6,3.3,1c0.8,0.4,1.6,0.9,2.1,1.6c0.6,0.7,0.9,1.7,0.9,2.9c0,1.5-0.7,3-2,3.9
				c-1.3,1-2.9,1.5-4.9,1.5C-89.2,27.8-90.5,27.5-91.7,27"/>
			<path id="Path_31" d="M-72.6,26.7c-1.2-0.7-2.1-1.7-2.8-2.9c-0.7-1.3-1-2.7-1-4.2V9h2.8v10.7c0,1.6,0.5,2.9,1.4,3.9
				c1,1,2.2,1.5,3.7,1.5c1.5,0,2.8-0.5,3.7-1.5c1-1,1.4-2.3,1.4-3.9V9h2.8v10.7c0,1.4-0.3,2.9-1,4.2c-0.6,1.2-1.6,2.2-2.8,2.9
				c-1.3,0.7-2.7,1.1-4.2,1C-69.9,27.8-71.3,27.4-72.6,26.7"/>
			<path id="Path_32" d="M-51.2,9.7c-1.2,0.7-2.1,1.7-2.8,2.9c-0.7,1.3-1,2.7-1,4.2v10.7h2.8V16.7c0-1.6,0.5-2.9,1.4-3.9
				c1-1,2.2-1.5,3.7-1.5c1.5,0,2.8,0.5,3.7,1.5c1,1,1.4,2.3,1.4,3.9v10.7h2.8V16.7c0-1.4-0.3-2.9-1-4.2c-0.6-1.2-1.6-2.2-2.8-2.9
				C-45.5,8.3-48.6,8.3-51.2,9.7"/>
			<path id="Path_33" d="M-27.5,23l6.2-14h2.9l-8.2,18.3h-1.9L-36.7,9h3L-27.5,23z"/>
			<path id="Path_34" d="M19.5,26.5c-4.6-2.6-6.2-8.5-3.5-13c0.8-1.5,2.1-2.7,3.5-3.5c3-1.7,6.6-1.7,9.6,0c4.6,2.6,6.2,8.5,3.5,13
				c-0.8,1.5-2.1,2.7-3.5,3.5C26.1,28.2,22.5,28.2,19.5,26.5 M27.6,24.2c1-0.6,1.8-1.5,2.4-2.5c1.2-2.2,1.2-4.8,0-7
				c-0.6-1-1.4-1.9-2.4-2.5c-2.1-1.2-4.6-1.2-6.7,0c-1,0.6-1.8,1.5-2.4,2.5c-1.2,2.2-1.2,4.8,0,7c0.6,1,1.4,1.9,2.4,2.5
				C23,25.4,25.6,25.4,27.6,24.2"/>
			<path id="Path_35" d="M9.1,13.4c-1.2-2-3-3.5-5.2-4.2l0,0C3,8.8,2,8.7,1.1,8.7c0,0-0.1,0-0.1,0c-1.6,0-3.1,0.4-4.5,1.2
				c-1.4,0.8-2.5,1.9-3.3,3.3c-1.6,2.9-1.6,6.6,0,9.5c0.8,1.3,1.9,2.5,3.3,3.3c1.4,0.8,3,1.2,4.6,1.2c1.3,0,2.5-0.3,3.7-0.8
				c1.1-0.6,2.1-1.3,2.9-2.3v2.4c0,1.9-0.6,3.4-1.7,4.6c-1.2,1.2-2.7,1.7-4.6,1.7c-1.3,0-2.6-0.3-3.7-1c-1-0.6-1.8-1.6-2.3-2.7h-2.8
				c0.5,1.9,1.6,3.5,3.2,4.6c1.6,1.2,3.4,1.7,5.6,1.7c1.7,0,3.3-0.4,4.8-1.2c1.3-0.8,2.5-1.9,3.2-3.2c0.8-1.4,1.2-3,1.2-4.6v-8
				C10.4,16.5,10,14.8,9.1,13.4 M6.6,21.7c-0.5,0.8-1.2,1.3-2,1.8c-2.1,1.2-4.6,1.2-6.7,0c-1-0.6-1.8-1.4-2.3-2.3
				c-1.1-2.1-1.1-4.6,0-6.7c0.6-1,1.3-1.8,2.3-2.3c1-0.6,2-0.8,3.1-0.9l0,0c1.1,0,2.2,0.4,3.1,0.9c1,0.6,1.8,1.5,2.4,2.5
				C7.8,16.9,7.8,19.5,6.6,21.7L6.6,21.7"/>
			<rect id="Rectangle_7" x="-15.2" y="9.1" width="2.8" height="18.3"/>
			<path id="Path_36" d="M-11.6,3c0,1.2-0.9,2.1-2.2,2.1S-16,4.2-16,3c0-1.2,0.9-2.1,2.1-2.2c0,0,0.1,0,0.2,0c1.2,0,2.1,0.8,2.2,2
				l0,0C-11.6,2.9-11.6,2.9-11.6,3"/>
		</g>
	</g>
</g>
</svg>
